<svg width="24" height="24" viewBox="0 0 24 24" fill="none" xmlns="http://www.w3.org/2000/svg">
<g id="Icon/Font Awesome Free/Solid/P/paw">
<path id="Vector" d="M12.0002 10.7502C8.89827 10.7502 4.50027 15.5454 4.50027 18.5723C4.50027 19.9356 5.54753 20.75 7.30259 20.75C9.21038 20.75 10.4701 19.7704 12.0002 19.7704C13.5435 19.7704 14.8068 20.75 16.6978 20.75C18.4529 20.75 19.5001 19.9356 19.5001 18.5723C19.5001 15.5454 15.1021 10.7502 12.0002 10.7502ZM6.24713 10.2576C5.84088 8.90408 4.58934 8.02752 3.45185 8.2994C2.31436 8.57127 1.72179 9.88883 2.12803 11.2423C2.53428 12.5958 3.78583 13.4724 4.92332 13.2005C6.0608 12.9286 6.65338 11.6111 6.24713 10.2576ZM9.55647 9.44587C10.7651 9.1279 11.3697 7.49511 10.9072 5.79903C10.4447 4.10296 9.09007 2.98617 7.88149 3.30414C6.67291 3.6221 6.06823 5.2549 6.53072 6.95097C6.99322 8.64705 8.34828 9.76422 9.55647 9.44587ZM20.5482 8.29979C19.4107 8.02791 18.1595 8.90447 17.7529 10.258C17.3466 11.6115 17.9392 12.929 19.0767 13.2009C20.2142 13.4728 21.4653 12.5962 21.872 11.2427C22.2782 9.88922 21.6856 8.57166 20.5482 8.29979ZM14.4439 9.44587C15.6525 9.76383 17.0072 8.64705 17.4697 6.95097C17.9322 5.2549 17.3275 3.62249 16.1189 3.30414C14.9103 2.98578 13.5556 4.10296 13.0932 5.79903C12.6307 7.49511 13.2353 9.1279 14.4439 9.44587Z" fill="#616161"/>
</g>
</svg>
