<svg width="32" height="32" viewBox="0 0 32 32" fill="none" xmlns="http://www.w3.org/2000/svg">
<g id="Group">
<path id="Vector" d="M16 29.3333C8.636 29.3333 2.66667 23.364 2.66667 16C2.66667 8.636 8.636 2.66667 16 2.66667C23.364 2.66667 29.3333 8.636 29.3333 16C29.3333 23.364 23.364 29.3333 16 29.3333ZM16 26.6667C18.829 26.6667 21.5421 25.5429 23.5425 23.5425C25.5429 21.5421 26.6667 18.829 26.6667 16C26.6667 13.171 25.5429 10.4579 23.5425 8.45753C21.5421 6.45714 18.829 5.33333 16 5.33333C13.171 5.33333 10.4579 6.45714 8.45753 8.45753C6.45714 10.4579 5.33333 13.171 5.33333 16C5.33333 18.829 6.45714 21.5421 8.45753 23.5425C10.4579 25.5429 13.171 26.6667 16 26.6667ZM11.3333 18.6667H18.6667C18.8435 18.6667 19.013 18.5964 19.1381 18.4714C19.2631 18.3464 19.3333 18.1768 19.3333 18C19.3333 17.8232 19.2631 17.6536 19.1381 17.5286C19.013 17.4036 18.8435 17.3333 18.6667 17.3333H13.3333C12.4493 17.3333 11.6014 16.9821 10.9763 16.357C10.3512 15.7319 10 14.8841 10 14C10 13.1159 10.3512 12.2681 10.9763 11.643C11.6014 11.0179 12.4493 10.6667 13.3333 10.6667H14.6667V8H17.3333V10.6667H20.6667V13.3333H13.3333C13.1565 13.3333 12.987 13.4036 12.8619 13.5286C12.7369 13.6536 12.6667 13.8232 12.6667 14C12.6667 14.1768 12.7369 14.3464 12.8619 14.4714C12.987 14.5964 13.1565 14.6667 13.3333 14.6667H18.6667C19.5507 14.6667 20.3986 15.0179 21.0237 15.643C21.6488 16.2681 22 17.1159 22 18C22 18.8841 21.6488 19.7319 21.0237 20.357C20.3986 20.9821 19.5507 21.3333 18.6667 21.3333H17.3333V24H14.6667V21.3333H11.3333V18.6667Z" fill="#616161"/>
</g>
</svg>
