<svg width="21" height="20" viewBox="0 0 21 20" fill="none" xmlns="http://www.w3.org/2000/svg">
<g id="Group">
<path id="Vector" d="M12.1667 1.66667C13.6916 1.66594 15.1708 2.18806 16.3574 3.14594C17.544 4.10383 18.3663 5.43957 18.6872 6.9304C19.0082 8.42122 18.8083 9.97701 18.1209 11.3383C17.4335 12.6996 16.3002 13.784 14.91 14.4108C14.4656 15.3933 13.7896 16.2532 12.9399 16.917C12.0902 17.5808 11.0921 18.0286 10.0314 18.222C8.9706 18.4153 7.87875 18.3485 6.84948 18.0272C5.8202 17.706 4.8842 17.1398 4.12177 16.3774C3.35933 15.615 2.7932 14.679 2.47193 13.6497C2.15067 12.6204 2.08386 11.5286 2.27722 10.4678C2.47059 9.40704 2.91836 8.409 3.58215 7.55929C4.24593 6.70957 5.10591 6.03354 6.08834 5.58917C6.61679 4.41991 7.47133 3.42792 8.54946 2.73218C9.62759 2.03643 10.8835 1.66647 12.1667 1.66667ZM8.83334 6.66667C8.17673 6.66667 7.52655 6.796 6.91992 7.04728C6.31329 7.29855 5.7621 7.66685 5.29781 8.13114C4.83351 8.59543 4.46521 9.14663 4.21394 9.75326C3.96267 10.3599 3.83334 11.0101 3.83334 11.6667C3.83334 12.3233 3.96267 12.9735 4.21394 13.5801C4.46521 14.1867 4.83351 14.7379 5.29781 15.2022C5.7621 15.6665 6.31329 16.0348 6.91992 16.2861C7.52655 16.5373 8.17673 16.6667 8.83334 16.6667C10.1594 16.6667 11.4312 16.1399 12.3689 15.2022C13.3066 14.2645 13.8333 12.9928 13.8333 11.6667C13.8333 10.3406 13.3066 9.06882 12.3689 8.13114C11.4312 7.19346 10.1594 6.66667 8.83334 6.66667ZM9.66667 7.50001V8.33334H11.3333V10H8.00001C7.89588 9.99981 7.79546 10.0386 7.71852 10.1088C7.64158 10.1789 7.59368 10.2753 7.58428 10.379C7.57487 10.4827 7.60463 10.5862 7.66769 10.669C7.73075 10.7519 7.82255 10.8081 7.92501 10.8267L8.00001 10.8333H9.66667C10.2192 10.8333 10.7491 11.0528 11.1398 11.4435C11.5305 11.8342 11.75 12.3641 11.75 12.9167C11.75 13.4692 11.5305 13.9991 11.1398 14.3898C10.7491 14.7805 10.2192 15 9.66667 15V15.8333H8.00001V15H6.33334V13.3333H9.66667C9.77079 13.3335 9.87121 13.2947 9.94816 13.2246C10.0251 13.1544 10.073 13.058 10.0824 12.9543C10.0918 12.8506 10.0621 12.7472 9.99899 12.6643C9.93593 12.5815 9.84413 12.5252 9.74167 12.5067L9.66667 12.5H8.00001C7.44747 12.5 6.91757 12.2805 6.52687 11.8898C6.13617 11.4991 5.91667 10.9692 5.91667 10.4167C5.91667 9.86414 6.13617 9.33423 6.52687 8.94353C6.91757 8.55283 7.44747 8.33334 8.00001 8.33334V7.50001H9.66667ZM12.1667 3.33334C11.4606 3.33251 10.7624 3.48162 10.1182 3.77081C9.47403 4.05999 8.89861 4.48265 8.43001 5.01084C9.37189 4.95366 10.3152 5.09709 11.1975 5.43163C12.0798 5.76617 12.8811 6.28421 13.5483 6.95149C14.2155 7.61877 14.7334 8.42008 15.0679 9.30245C15.4023 10.1848 15.5456 11.1281 15.4883 12.07C16.246 11.3964 16.781 10.5083 17.0224 9.5236C17.2637 8.5389 17.2 7.5041 16.8397 6.55644C16.4794 5.60878 15.8395 4.79304 15.0049 4.21741C14.1704 3.64178 13.1805 3.33346 12.1667 3.33334Z" fill="#616161"/>
</g>
</svg>
